<?xml version="1.0" encoding="UTF-8"?>
<svg width="160" height="160" viewBox="0 0 160 160" xmlns="http://www.w3.org/2000/svg">
    <path id="path1" fill="#2c2c2c" stroke="none" d="M 150.878906 83.24218 C 150.175781 81.054695 150.175781 78.710938 150.878906 76.542969 L 157.714844 55.410156 C 159.355469 50.332031 157.070313 44.785156 152.304688 42.363281 L 132.519531 32.246094 C 130.488281 31.210938 128.828125 29.550781 127.773438 27.5 L 117.65625 7.714844 C 115.214844 2.949219 109.6875 0.664063 104.609375 2.304688 L 83.476563 9.140625 C 81.289055 9.84375 78.945313 9.84375 76.777344 9.140625 L 55.644531 2.304688 C 50.566406 0.664063 45.019531 2.949219 42.597656 7.714844 L 32.480473 27.5 C 31.445313 29.53125 29.785156 31.191406 27.734375 32.246094 L 7.929688 42.34375 C 3.164063 44.785156 0.878906 50.3125 2.519531 55.390625 L 9.355469 76.523438 C 10.058592 78.710938 10.058592 81.054695 9.355469 83.222656 L 2.519531 104.355469 C 0.878906 109.433594 3.164063 114.980461 7.929688 117.402344 L 27.714844 127.519531 C 29.746094 128.554688 31.406254 130.214844 32.460938 132.265625 L 42.578125 152.070313 C 45.019531 156.835938 50.546875 159.121094 55.625 157.480469 L 76.757813 150.644531 C 78.945313 149.941406 81.289055 149.941406 83.457031 150.644531 L 104.589851 157.480469 C 109.667969 159.121094 115.214844 156.835938 117.636719 152.070313 L 127.753906 132.285156 C 128.789063 130.253906 130.449219 128.59375 132.5 127.539063 L 152.285156 117.421875 C 157.050781 114.980461 159.335938 109.453125 157.695313 104.375 L 150.878906 83.24218 Z M 109.84375 50.429688 L 85.410156 116.796875 C 84.394531 119.570313 80.507805 119.648438 79.355469 116.933594 L 67.65625 89.140625 C 67.324219 88.339844 66.679688 87.714844 65.878906 87.382813 L 39.375 76.679688 C 36.621094 75.566406 36.679691 71.640625 39.472656 70.605469 L 105.66407 46.25 C 108.261719 45.3125 110.800781 47.832031 109.84375 50.429688 Z"/>
</svg>
