<?xml version="1.0" encoding="UTF-8"?>
<svg width="150" height="150" viewBox="0 0 150 150" xmlns="http://www.w3.org/2000/svg">
    <path id="path1" fill="#0ba194" stroke="none" d="M 50.052345 135.934372 C 42.797417 133.373749 36.11908 129.406708 30.400002 124.260544 C 28.093361 122.408981 24.724216 122.77813 22.872658 125.08477 C 21.157814 127.221489 21.333591 130.309387 23.278908 132.239075 C 30.04657 138.30722 37.942856 142.983398 46.517189 146.000778 C 47.083595 146.205856 47.681252 146.315231 48.28476 146.321091 C 51.241798 146.287903 53.612885 143.864059 53.579689 140.907028 C 53.556252 138.678513 52.150002 136.696091 50.052345 135.934372 Z M 65.847267 140.807434 C 64.845055 141.81839 64.286377 143.186646 64.294525 144.610153 C 64.302345 145.309372 64.44883 146.000778 64.722267 146.645309 C 64.993752 147.293747 65.374603 147.891403 65.847267 148.412903 C 66.367683 148.886353 66.965576 149.266891 67.614838 149.537888 C 68.91172 150.110168 70.388283 150.110168 71.685158 149.537888 C 73.030098 149.051331 74.089226 147.992203 74.575783 146.647263 C 74.84922 146.002731 74.995705 145.31134 75.003517 144.612106 C 75.021088 141.655075 72.63633 139.242966 69.679298 139.227341 C 68.241257 139.216309 66.859604 139.786011 65.847267 140.807434 Z"/>
    <path id="path2" fill="#0ba194" stroke="none" d="M 69.650002 0.033981 L 69.650002 10.742966 C 31.204689 10.739059 0.034765 41.899216 0.030861 80.344536 C 0.02914 92.566887 3.245691 104.574219 9.357033 115.158989 C 10.728123 117.780075 13.962502 118.791794 16.583595 117.4207 C 19.204689 116.049606 20.216404 112.815239 18.845314 110.194138 C 18.775002 110.061325 18.700783 109.930466 18.618752 109.803513 C 2.353127 81.631638 12.00547 45.6082 40.177345 29.342575 C 49.137169 24.169128 59.30188 21.447571 69.648048 21.45195 L 69.648048 32.160934 C 96.263275 32.160934 117.839462 53.737106 117.839462 80.352341 L 128.548447 80.352341 L 128.548447 80.354294 C 128.571884 105.328903 112.8414 127.602341 89.298439 135.934372 C 86.454689 136.744919 84.806252 139.707825 85.616791 142.551575 C 86.427345 145.395309 89.390228 147.043747 92.233978 146.2332 C 92.456642 146.1707 92.673431 146.09259 92.88633 146.000778 C 120.69101 136.153122 139.271088 109.850395 139.259369 80.352341 L 149.968369 80.352341 C 149.970322 35.994919 114.009384 0.033981 69.650002 0.033981 Z"/>
</svg>
