<?xml version="1.0" standalone="no"?><!--
  - Schedule plugin for CraftCMS
  -
  - https://github.com/panlatent/schedule
  -->

<!--
  - Schedule plugin for CraftCMS
  -
  - @link      https://github.com/panlatent/schedule
  -->

<!DOCTYPE svg PUBLIC "-//W3C//DTD SVG 1.1//EN" "http://www.w3.org/Graphics/SVG/1.1/DTD/svg11.dtd"><svg t="1544433672315" class="icon" style="" viewBox="0 0 1024 1024" version="1.1" xmlns="http://www.w3.org/2000/svg" p-id="2086" xmlns:xlink="http://www.w3.org/1999/xlink" width="200" height="200"><defs><style type="text/css"></style></defs><path d="M495.499699 90.669022c42.354644 0.199545 84.882226 38.166251 115.697045 56.147788 84.495416 45.367257 169.018461 90.747817 253.513878 136.115074 24.425296 12.754488 114.072035 42.627866 85.072561 86.773296-10.81123 16.45988-83.324754 41.314964-105.488543 51.043536-77.125565 36.860513-154.270573 73.732282-231.396137 110.593817-17.196661 8.234545-85.826737 46.723138-103.787808 42.534745-82.793658-40.829917-165.615968-81.673138-248.409626-122.504078C225.875912 433.70275 71.141782 374.666168 65.035714 344.181877c-7.55507-37.714973 74.711586-63.667042 98.683557-76.564793C274.300808 208.640877 384.917138 149.646252 495.499699 90.669022z" p-id="2087"></path><path d="M95.661222 492.209258c104.343463 49.903573 208.719672 99.82045 313.064159 149.72607 18.096147 9.188266 95.228875 56.216349 115.698069 51.042513 25.51921-13.042037 51.046606-26.088168 76.564793-39.132252 72.021314-32.893154 144.06207-65.792449 216.083383-98.683557 30.704302-13.487176 77.274968-50.03558 110.592794-49.341778 21.469987 15.343453 32.444946 27.062356 20.415982 57.848523-107.178021 49.904597-214.393905 99.821473-321.571926 149.72607-21.701255 9.524934-92.789313 56.168254-117.398804 51.042513-79.392188-39.130206-158.807912-78.269621-238.201124-117.39778-33.45188-16.971533-187.242522-78.351486-200.769606-98.68458-9.075703-13.641695-2.76088-30.193673 1.700735-42.535769C79.779509 501.281891 87.722412 496.744551 95.661222 492.209258z" p-id="2088"></path><path d="M95.661222 658.950863c104.343463 49.903573 208.719672 99.82045 313.064159 149.725046 18.645662 9.437953 94.078679 56.255235 115.698069 51.042513 96.404654-45.36521 192.838983-90.746794 289.24466-136.115074 32.893154-14.496156 78.635965-49.79101 113.996311-51.042513 13.627369 10.837836 38.370913 24.993231 23.819498 52.744271-7.560186 14.416338-169.56286 83.061764-197.367113 95.28004-58.977229 27.786857-117.971855 55.581899-176.949085 83.370803-16.685008 8.121981-44.168965 33.654494-69.758784 27.223015-94.135984-46.502104-188.30369-93.015464-282.438651-139.517567-49.904597-23.252587-99.82352-46.509267-149.72607-69.759807C46.410518 695.779653 79.394746 671.189605 95.661222 658.950863z" p-id="2089"></path></svg>